<?xml version="1.0" encoding="utf-8"?>
<!-- Generator: Adobe Illustrator 28.2.0, SVG Export Plug-In . SVG Version: 6.00 Build 0)  -->
<svg version="1.0" id="Layer_1" xmlns="http://www.w3.org/2000/svg" xmlns:xlink="http://www.w3.org/1999/xlink" x="0px" y="0px"
	 viewBox="0 0 142.72 196.75" style="enable-background:new 0 0 142.72 196.75;" xml:space="preserve">
<style type="text/css">
	.st0{fill:#231F20;}
	.st1{fill:#8CC540;}
</style>
<path id="color_x5F_2" class="st0" d="M128.44,108.32c-1.11-0.19-2.19-0.27-3.26-0.26c-6.12,0.07-12.05-2.14-16.38-6.47L95.16,87.95
	c-4.32-4.33-6.55-10.24-6.47-16.36c0.01-1.09-0.07-2.2-0.27-3.33c-1.24-7.13-7.03-12.86-14.18-14.01
	c-11.81-1.9-21.86,8.14-19.98,19.95c1.14,7.15,6.86,12.95,13.99,14.21c1.14,0.2,2.27,0.29,3.37,0.27
	c6.11-0.09,12.01,2.15,16.33,6.47l13.06,13.06c4.53,4.53,7.07,10.68,7.05,17.08v0.09c0,0.03,0,0.06,0,0.09
	c0.03,6.14-2.07,12.1-6.41,16.44L87.9,155.68c-4.34,4.34-10.3,6.44-16.44,6.41c-0.03,0-0.06,0-0.09,0c-0.03,0-0.06,0-0.09,0
	c-6.14,0.03-12.1-2.07-16.45-6.41l-13.75-13.75c-4.29-4.29-6.52-10.15-6.41-16.21c0.02-1.11-0.07-2.26-0.27-3.41
	c-1.24-7.14-7.03-12.86-14.18-14.01c-11.81-1.9-21.86,8.14-19.98,19.95c1.14,7.15,6.86,12.95,13.99,14.21
	c1.17,0.21,2.32,0.29,3.45,0.27c6.05-0.12,11.91,2.13,16.19,6.41l13.76,13.76c4.29,4.29,6.52,10.15,6.41,16.22
	c-0.02,1.1,0.06,2.23,0.26,3.37c1.28,7.44,7.52,13.29,15.02,14.15c10.49,1.2,19.38-6.97,19.38-17.21c0-0.03,0-0.06,0-0.09
	c-0.03-6.14,2.07-12.1,6.41-16.45l13.75-13.75c4.34-4.34,10.3-6.44,16.45-6.41c0.03,0,0.06,0,0.09,0c10.25,0,18.42-8.9,17.21-19.39
	C141.74,115.83,135.88,109.6,128.44,108.32z"/>
<path id="color_x5F_1" class="st1" d="M0.11,73.36C-1.06,62.9,7.1,54.03,17.33,54.03l0.09,0c6.41,0.02,12.56-2.52,17.09-7.05
	l13.06-13.06c4.33-4.33,6.55-10.24,6.47-16.36c-0.01-1.08,0.07-2.18,0.27-3.3c1.24-7.14,7.02-12.87,14.17-14.02
	c11.82-1.91,21.89,8.14,20,19.96c-1.15,7.15-6.87,12.95-14.01,14.19c-1.13,0.2-2.24,0.28-3.33,0.27
	c-6.12-0.08-12.03,2.14-16.35,6.47L41.71,54.18c-4.53,4.53-7.07,10.68-7.05,17.09v0.09c0,0.03,0,0.06,0,0.09
	c-0.03,6.14,2.07,12.11,6.41,16.45l13.75,13.75c4.29,4.29,10.16,6.51,16.23,6.41c1.1-0.02,2.22,0.07,3.36,0.26
	c7.14,1.23,12.87,7.01,14.03,14.16c1.92,11.83-8.15,21.91-19.98,20c-7.15-1.15-12.94-6.88-14.18-14.02
	c-0.2-1.15-0.28-2.28-0.26-3.39c0.11-6.06-2.12-11.93-6.41-16.22L33.86,95.1c-4.28-4.28-10.14-6.53-16.19-6.41
	c-1.12,0.02-2.27-0.06-3.43-0.27C6.79,87.12,0.95,80.87,0.11,73.36z M125.39,88.69c9.57,0,17.33-7.76,17.33-17.33
	c0-9.57-7.76-17.33-17.33-17.33c-9.57,0-17.33,7.76-17.33,17.33C108.06,80.93,115.82,88.69,125.39,88.69z"/>
</svg>
